PathFileType	4	(X/Y/Z)	C:\Users\WrightLab\Desktop\Jo\P2_Trial25.trc
DataRate	CameraRate	NumFrames	NumMarkers	Units	OrigDataRate	OrigDataStartFrame	OrigNumFrames
100.00	100.00	       67	19	mm	100.00	463	       529
Frame#	Time	Headset_Front			Headset_Back			Headset_Left			Headset_Right			Left_Shoulder			Right_Shoulder			Sternum			C7			Left Elbow			Right Elbow			Left Wrist			Right Wrist			Left ASIS			Right ASIS			S2			Left Knee			Right Knee			Left Ankle			Right Ankle			
		X1	Y1	Z1	X2	Y2	Z2	X3	Y3	Z3	X4	Y4	Z4	X5	Y5	Z5	X6	Y6	Z6	X7	Y7	Z7	X8	Y8	Z8	X9	Y9	Z9	X10	Y10	Z10	X11	Y11	Z11	X12	Y12	Z12	X13	Y13	Z13	X14	Y14	Z14	X15	Y15	Z15	X16	Y16	Z16	X17	Y17	Z17	X18	Y18	Z18	X19	Y19	Z19	

463	4.620							-112.60401	1749.01721	2171.27612				30.76815	1514.49792	2239.16406				-145.08821	1393.28491	2269.43872																-233.28986	1084.12268	2311.29150							49.85342	534.87451	2491.31860										
464	4.630							-114.98425	1749.44385	2175.92017				28.60481	1515.23157	2246.89844				-148.24310	1393.79028	2274.61646																-236.36819	1084.74744	2314.64673							44.19606	538.98853	2505.67456										
465	4.640													24.83149	1516.34705	2254.67358				-151.32880	1394.16516	2279.59961																-238.78003	1084.43298	2317.10840							37.67756	542.82538	2518.20947										
466	4.650													22.16106	1517.03967	2263.17236				-153.99327	1394.70947	2284.27441																-241.98326	1084.28381	2321.14722							30.92258	547.39099	2532.23486										
467	4.660													18.98059	1517.50903	2270.73315				-157.11182	1394.75659	2289.20630																-244.33330	1084.12219	2324.06348							24.19078	550.29602	2543.00537										
468	4.670													16.10465	1518.20007	2279.35767				-159.96466	1394.75635	2294.39819																-246.85114	1083.02783	2326.37671							17.66776	551.77209	2553.70703										
469	4.680													13.23139	1518.57263	2286.91797				-163.14711	1394.87317	2300.13818																-249.55135	1082.36609	2329.90527							10.63832	553.74170	2563.95044										
470	4.690													9.83578	1519.22412	2296.25342				-166.46957	1394.63269	2305.92651																-252.39899	1081.29211	2333.12451							4.09109	555.93408	2574.71338										
471	4.700													7.06046	1519.26379	2304.01563				-168.85197	1394.03638	2310.85449																-254.53117	1080.91516	2335.60962							-1.45029	553.94843	2581.36182										
472	4.710													3.82832	1519.67554	2313.67139				-172.12709	1394.25269	2316.65137																-256.53720	1080.17505	2338.33252							-11.17431	555.38934	2588.51270										
473	4.720													0.93238	1519.78381	2321.43237				-174.41679	1393.44568	2321.66309																-259.04962	1079.61316	2342.38428							-17.72878	553.98785	2593.00439										
474	4.730													-2.07184	1520.22717	2331.18433				-177.28178	1393.29626	2327.63232																-261.16800	1078.62781	2345.60083							-24.04442	551.55652	2596.26660										
475	4.740													-5.25742	1520.29089	2340.13794				-179.57324	1392.61572	2332.78882																-263.41183	1078.80200	2348.96655							-30.37179	548.81647	2599.55859										
476	4.750													-7.55132	1519.80640	2348.61279				-181.57220	1392.15527	2337.89038																-265.64340	1078.06482	2352.37842							-36.21560	545.90558	2601.80981										
477	4.760													-10.54592	1520.23022	2358.30933				-183.82668	1391.45374	2343.55957																-267.70688	1077.34558	2356.15259							-41.19566	542.66943	2602.47583										
478	4.770													-13.27423	1519.63013	2367.12988				-186.18095	1391.18042	2349.83789																-269.83011	1076.17310	2359.81958							-45.53239	538.44873	2602.50391										
479	4.780													-16.12698	1519.40259	2376.73364				-188.03285	1390.57300	2355.63916																-271.87042	1076.00708	2363.57471							-49.70843	534.32520	2602.35474										
480	4.790													-18.80422	1519.30212	2386.37354				-189.98892	1389.92249	2361.27881																-274.04025	1075.21143	2367.68872							-53.81119	530.35938	2602.45801										
481	4.800													-21.14149	1518.52271	2395.22803				-191.63667	1389.30688	2367.34790																-276.18155	1074.71790	2371.49561							-57.96904	526.35217	2602.38428										
482	4.810													-24.06795	1518.47009	2404.79272				-193.43578	1388.85181	2372.93677																-278.10519	1074.13525	2375.66113							-61.75313	522.22119	2602.18262										
483	4.820													-26.19700	1517.89575	2413.76904				-195.02443	1388.15552	2378.70532																-279.17377	1075.21997	2381.14355							-65.06334	517.81653	2601.57080										
484	4.830													-29.19315	1517.77808	2423.38281				-196.94167	1387.49438	2385.17480																-281.52518	1075.31665	2386.17065							-66.22401	515.80341	2603.27466										
485	4.840													-31.51339	1517.29700	2432.33032				-198.70262	1386.87317	2390.75269																-283.11118	1074.03088	2389.03687							-66.11033	514.74902	2607.34351										
486	4.850													-34.48125	1517.12207	2441.78003				-200.36276	1386.39746	2396.91943																-284.14172	1075.08362	2395.14795							-67.66140	515.31238	2613.77295										
487	4.860													-36.81012	1517.00476	2450.28687				-202.01291	1385.95654	2402.64819																-285.52090	1074.79773	2399.63013							-69.85306	515.61511	2620.63892										
488	4.870													-39.54407	1516.81726	2459.27856				-204.10951	1385.79895	2408.79834																-286.17758	1074.94080	2405.81494							-73.22424	515.23987	2628.40259										
489	4.880													-41.96933	1516.62976	2467.41992				-205.72920	1385.57996	2415.02588																-287.09317	1074.96106	2411.45898							-76.97175	514.64105	2635.66870										
490	4.890													-44.59401	1516.79419	2475.89038				-207.57057	1385.21399	2420.75220																-287.56049	1074.80640	2417.57642							-81.06989	514.43402	2642.38696										
491	4.900													-46.78060	1516.71082	2484.15283				-209.22588	1385.29272	2427.55591																-290.31824	1073.36169	2422.01440							-85.19023	513.48053	2649.15625										
492	4.910													-49.30965	1517.37048	2492.27661				-210.94417	1385.25305	2433.52856																-291.16779	1073.75281	2429.21899							-89.72227	513.20020	2655.22681										
493	4.920													-51.48159	1517.94690	2499.92236				-212.21468	1385.93640	2439.74634																-292.24847	1073.93579	2435.74243																			
494	4.930													-53.71856	1519.23511	2508.20239				-213.44493	1386.52417	2445.48950																-293.20502	1074.72913	2442.54736																			
495	4.940													-55.53371	1519.97900	2515.06177				-214.75107	1387.96326	2451.72632																-293.51959	1074.39526	2448.00391																			
496	4.950													-57.98913	1520.83789	2522.45679				-216.11420	1388.48035	2457.03320																-294.91074	1075.52649	2454.44873																			
497	4.960													-60.13137	1522.21912	2529.75537				-217.35364	1389.48047	2462.82520																																					
498	4.970													-62.69458	1523.17786	2536.66577				-219.22867	1390.91675	2468.76196																																					
499	4.980													-64.77116	1524.43372	2543.53809				-221.23904	1391.95972	2474.01831																																					
500	4.990													-67.64738	1525.87048	2550.49512				-223.10484	1393.23499	2479.71948																																					
501	5.000													-69.84108	1526.83020	2556.77417				-224.98364	1394.87598	2484.66406																																					
502	5.010													-72.56499	1527.48535	2563.65845				-227.04074	1395.45654	2489.36279																																					
503	5.020													-75.55412	1528.61145	2570.06006				-228.90868	1396.84692	2493.85596																																					
504	5.030													-78.36258	1529.67737	2576.86035				-231.01036	1398.28442	2498.99609																																					
505	5.040													-81.80374	1530.73633	2583.01489				-233.14906	1399.40125	2503.41187																																					
506	5.050													-85.21726	1531.55530	2588.97217				-235.18771	1400.33435	2507.06958																																					
507	5.060													-88.93282	1532.24561	2595.52173				-237.70853	1400.91150	2511.26660																																					
508	5.070													-92.73452	1532.92310	2601.47119																																											
509	5.080													-96.77271	1533.56482	2607.58447																																											
510	5.090													-101.19206	1534.39172	2613.50708																																											
511	5.100													-105.99413	1535.23706	2619.17090																																											
512	5.110													-110.95513	1535.72241	2624.97461																																											
513	5.120													-115.76121	1536.27527	2630.01147																																											
514	5.130													-121.11348	1538.08630	2636.04199																																											
515	5.140													-126.32976	1538.15637	2640.14990																																											
516	5.150													-132.27016	1538.89978	2645.30762																																											
517	5.160													-137.53075	1539.33984	2650.17529																																											
518	5.170													-143.07185	1539.13525	2653.65527																																											
519	5.180													-148.47588	1540.31409	2658.39893																																											
520	5.190													-153.92119	1539.60156	2661.58447																																											
521	5.200													-158.87312	1539.84924	2665.65503																																											
522	5.210																																																										
523	5.220																																																										
524	5.230																																																										
525	5.240																																																										
526	5.250																																																										
527	5.260																																																										
528	5.270																																																										
529	5.280																																																										
